Young Adult (2011) 1080p MKV x264 AC3+DTS Multi Subs
.
[IMG]http://img15.imageshack.us/img15/4967/ya2012.jpg[/IMG]
.
Verenigde Staten
Komedie / Drama
94 minuten

geregisseerd door Jason Reitman
met Charlize Theron, Patton Oswalt en Patrick Wilson

Niet lang na haar echtscheiding keert Mavis Gary (Charlize Theron), een fictieschrijfster, terug naar haar huis in een klein dorpje ergens in Minnesota. Ze wil de hoogtijdagen van weleer herleven en is van plan om de relatie met haar ex-vriendje (Patrick Wilson) van toen op te rakelen. Deze laatste is nu echter getrouwd en heeft kinderen. De thuiskomst loopt niet zoals gepland, en dus vormt Mavis een ongewone band met een andere ex-klasgenoot (Patton Oswalt) die de middelbare school ook niet helemaal achter zich heeft kunnen laten.

Vanaf 1 maart te zien in 13 bioscopen
. 
http://www.moviemeter.nl/film/78769
.
PLOT
.
Soon after her divorce, a fiction writer returns to her home in small-town Minnesota, looking to rekindle a romance with her ex-boyfriend, who is now happily married and has a newborn daughter. 
. 
http://www.imdb.com/title/tt1625346/
.
INFO
.
Subs: Dutch, Englsh normal, English FHI, Romanian
NL Vertaling SRT-TEAM
.
Format                           : Matroska
Format version                   : Version 2
File size                        : 6.97 GiB
Duration                         : 1h 33mn
Overall bit rate                 : 10.7 Mbps
Encoded date                     : UTC 2012-03-01 23:38:47
Writing application              : mkvmerge v5.2.0 ('I can't explain') built on Dec 18 2011 18:12:03
Writing library                  : libebml v1.2.3 + libmatroska v1.3.0

Video
ID                               : 1
Format                           : AVC
Format/Info                      : Advanced Video Codec
Format profile                   : High@L4.1
Format settings, CABAC           : Yes
Format settings, ReFrames        : 4 frames
Codec ID                         : V_MPEG4/ISO/AVC
Duration                         : 1h 33mn
Bit rate                         : 8 505 Kbps
Width                            : 1 920 pixels
Height                           : 1 080 pixels
Display aspect ratio             : 16:9
Frame rate                       : 23.976 fps
Color space                      : YUV
Chroma subsampling               : 4:2:0
Bit depth                        : 8 bits
Scan type                        : Progressive
Bits/(Pixel*Frame)               : 0.171
Stream size                      : 5.42 GiB (78%)
Writing library                  : x264 core 120 r2146 bcd41db
Encoding settings                : cabac=1 / ref=4 / deblock=1:0:0 / analyse=0x3:0x113 / me=umh / subme=7 / psy=1 / psy_rd=1.00:0.15 / mixed_ref=1 / me_range=16 / chroma_me=1 / trellis=1 / 8x8dct=1 / cqm=0 / deadzone=21,11 / fast_pskip=0 / chroma_qp_offset=-3 / threads=12 / sliced_threads=0 / nr=0 / decimate=1 / interlaced=0 / bluray_compat=0 / constrained_intra=0 / bframes=3 / b_pyramid=2 / b_adapt=1 / b_bias=0 / direct=1 / weightb=1 / open_gop=0 / weightp=2 / keyint=250 / keyint_min=23 / scenecut=40 / intra_refresh=0 / rc_lookahead=40 / rc=2pass / mbtree=1 / bitrate=8505 / ratetol=1.0 / qcomp=0.60 / qpmin=0 / qpmax=69 / qpstep=4 / cplxblur=20.0 / qblur=0.5 / ip_ratio=1.40 / aq=1:1.00
Language                         : English
Default                          : Yes
Forced                           : No

Audio #1
ID                               : 2
Format                           : DTS
Format/Info                      : Digital Theater Systems
Codec ID                         : A_DTS
Duration                         : 1h 33mn
Bit rate mode                    : Constant
Bit rate                         : 1 510 Kbps
Channel(s)                       : 6 channels
Channel positions                : Front: L C R, Side: L R, LFE
Sampling rate                    : 48.0 KHz
Bit depth                        : 24 bits
Compression mode                 : Lossy
Stream size                      : 1 011 MiB (14%)
Title                            : English DTS 1509kbps
Language                         : English
Default                          : Yes
Forced                           : No

Audio #2
ID                               : 3
Format                           : AC-3
Format/Info                      : Audio Coding 3
Mode extension                   : CM (complete main)
Codec ID                         : A_AC3
Duration                         : 1h 33mn
Bit rate mode                    : Constant
Bit rate                         : 640 Kbps
Channel(s)                       : 6 channels
Channel positions                : Front: L C R, Side: L R, LFE
Sampling rate                    : 48.0 KHz
Bit depth                        : 16 bits
Compression mode                 : Lossy
Stream size                      : 429 MiB (6%)
Title                            : AC3
Language                         : English
Default                          : No
Forced                           : No

Text #1
ID                               : 4
Format                           : UTF-8
Codec ID                         : S_TEXT/UTF8
Codec ID/Info                    : UTF-8 Plain Text
Title                            : NL SRT_TEAM
Language                         : Dutch
Default                          : No
Forced                           : No

Text #2
ID                               : 5
Format                           : UTF-8
Codec ID                         : S_TEXT/UTF8
Codec ID/Info                    : UTF-8 Plain Text
Title                            : English FHI
Language                         : English
Default                          : No
Forced                           : No

Text #3
ID                               : 6
Format                           : UTF-8
Codec ID                         : S_TEXT/UTF8
Codec ID/Info                    : UTF-8 Plain Text
Title                            : English
Language                         : English
Default                          : No
Forced                           : No

Text #4
ID                               : 7
Format                           : UTF-8
Codec ID                         : S_TEXT/UTF8
Codec ID/Info                    : UTF-8 Plain Text
Language                         : Romanian
Default                          : No
Forced                           : No

Menu
00:00:00.000                     : en:00:00:00.000
00:06:12.664                     : en:00:06:12.664
00:11:11.462                     : en:00:11:11.462
00:16:49.967                     : en:00:16:49.967
00:24:26.590                     : en:00:24:26.590
00:32:13.098                     : en:00:32:13.098
00:39:00.838                     : en:00:39:00.838
00:42:41.934                     : en:00:42:41.934
00:50:00.080                     : en:00:50:00.080
00:55:23.862                     : en:00:55:23.862
01:01:39.571                     : en:01:01:39.571
01:06:43.791                     : en:01:06:43.791
01:12:09.742                     : en:01:12:09.742
01:16:24.330                     : en:01:16:24.330
01:21:42.314                     : en:01:21:42.314
01:26:35.857                     : en:01:26:35.857
01:28:50.325                     : en:01:28:50.325


.
Enjoy
